<svg height="569" viewBox="0 0 1020.535 569" width="1020.535" xmlns="http://www.w3.org/2000/svg"><path d="m90.5 309.5h618v11h-618z" fill="#656565"/><path d="m90.5 309.5h618v11h-618z" fill="none" stroke="#000"/><g stroke-width="4"><path d="m751.036 316h210.864" fill="none" stroke="#c81919"/><path d="m961.9 316-3.2 4.8 12.8-4.8-12.8-4.8z" fill="#c81919" stroke="#c81919"/><path d="m181.5 68.5-172 492" fill="none" stroke="#000"/><path d="m382.5 97.5-146 434" fill="none" stroke="#000"/><path d="m575.5 123.5-126 383" fill="none" stroke="#000"/><path d="m762.5 137.5-114 355" fill="none" stroke="#000"/></g><path d="m306 309h6v13h-6z" fill="#fdfcfc"/><path d="m312.5 307.167s-134 38-178 134" fill="none" stroke="#000" stroke-width="3"/><path d="m306.5 322.5s-125.719 36.866-167 130" fill="none" stroke="#000" stroke-width="3"/><text transform="translate(197.421 40.031)"><tspan fill="#656565" font-family="Avenir-Medium" font-size="35" x="-71.96" y="10.5">Reflector</tspan></text><text transform="translate(391.183 48.5)"><tspan fill="#656565" font-family="Avenir-Medium" font-size="35" x="-51.853" y="-13.5">Driven </tspan><tspan fill="#656565" font-family="Avenir-Medium" font-size="35" x="-64.505" y="34.5">element</tspan></text><path d="m781.169 102.068c5.366-14.371-106.607 2.001-102.638-15.992" fill="none" stroke="#000" stroke-width="4"/><path d="m575.687 102.068c-5.366-14.371 106.607 2.001 102.638-15.992" fill="none" stroke="#000" stroke-width="4"/><text transform="translate(677.928 51.218)"><tspan fill="#656565" font-family="Avenir-Medium" font-size="35" x="-72.607" y="10.5">Directors</tspan></text><text transform="translate(852.268 381.583)"><tspan fill="#656565" font-family="Avenir-Medium" font-size="35" x="-93.38" y="-19.083">Direction of </tspan><tspan fill="#656565" font-family="Avenir-Medium" font-size="35" x="-152.023" y="28.917">maximum radiation</tspan></text><text transform="translate(146.402 476.5)"><tspan fill="#656565" font-family="Avenir-Medium" font-size="35" x="-56.403" y="10.5">Feeder</tspan></text></svg>